<svg width="427" height="151" viewBox="0 0 427 151" fill="none" xmlns="http://www.w3.org/2000/svg">
<g clip-path="url(#clip0_299_2)">
<path d="M136.98 150.09V101.41H143.42V121.41H168.69V101.41H175.13V150.09H168.69V127.09H143.39V150.09H136.98Z" fill="#731209"/>
<path d="M217.83 101.41H224.27V129.53C224.415 133.484 223.853 137.433 222.61 141.19C221.442 144.125 219.331 146.587 216.61 148.19C213.717 149.99 209.927 150.893 205.24 150.9C201.372 151.051 197.527 150.24 194.05 148.54C191.24 147.067 189.04 144.648 187.84 141.71C186.6 138.743 185.98 134.677 185.98 129.51V101.41H192.42V129.5C192.42 133.73 192.81 136.84 193.6 138.85C194.359 140.824 195.794 142.465 197.65 143.48C199.804 144.617 202.216 145.175 204.65 145.1C209.39 145.1 212.767 144.027 214.78 141.88C216.793 139.733 217.793 135.607 217.78 129.5L217.83 101.41Z" fill="#731209"/>
<path d="M234.93 150.09V101.41H241.54L267.1 139.63V101.41H273.28V150.09H266.69L241.12 111.84V150.09H234.93Z" fill="#731209"/>
<path d="M306.88 130.99V125.28H327.5V143.34C324.55 145.739 321.244 147.663 317.7 149.04C314.392 150.303 310.881 150.95 307.34 150.95C302.82 151.003 298.356 149.945 294.34 147.87C290.527 145.917 287.43 142.809 285.49 138.99C283.457 134.962 282.428 130.502 282.49 125.99C282.465 121.399 283.491 116.863 285.49 112.73C287.271 108.832 290.272 105.621 294.04 103.58C298.007 101.525 302.424 100.494 306.89 100.58C310.15 100.533 313.389 101.113 316.43 102.29C319.04 103.259 321.348 104.902 323.12 107.05C324.898 109.428 326.156 112.154 326.81 115.05L321 116.65C320.45 114.553 319.529 112.572 318.28 110.8C317.051 109.283 315.448 108.111 313.63 107.4C311.502 106.527 309.22 106.091 306.92 106.12C304.309 106.06 301.712 106.519 299.28 107.47C297.307 108.243 295.534 109.45 294.09 111C292.799 112.419 291.76 114.05 291.02 115.82C289.761 118.929 289.128 122.256 289.16 125.61C289.032 129.366 289.8 133.099 291.4 136.5C292.8 139.327 295.091 141.614 297.92 143.01C300.746 144.419 303.862 145.145 307.02 145.13C309.822 145.131 312.597 144.584 315.19 143.52C317.366 142.716 319.393 141.557 321.19 140.09V130.99H306.88Z" fill="#731209"/>
<path d="M337.13 150.09V101.41H372.32V107.15H343.57V122.06H370.5V127.79H343.57V144.36H373.45V150.11L337.13 150.09Z" fill="#731209"/>
<path d="M382.45 150.09V101.41H404.03C408.37 101.41 411.67 101.847 413.93 102.72C416.201 103.613 418.107 105.244 419.34 107.35C420.679 109.562 421.372 112.105 421.34 114.69C421.383 116.294 421.109 117.89 420.534 119.388C419.959 120.886 419.095 122.256 417.99 123.42C415.79 125.793 412.357 127.3 407.69 127.94C409.09 128.567 410.399 129.382 411.58 130.36C413.624 132.288 415.418 134.465 416.92 136.84L425.39 150.09H417.29L410.85 139.96C408.957 137.04 407.407 134.803 406.2 133.25C405.288 132.001 404.184 130.904 402.93 130C402.027 129.411 401.034 128.972 399.99 128.7C398.803 128.515 397.601 128.438 396.4 128.47H388.89V150.09H382.45ZM388.89 122.89H402.74C405.075 122.978 407.408 122.67 409.64 121.98C411.194 121.457 412.528 120.429 413.43 119.06C414.267 117.757 414.705 116.238 414.69 114.69C414.718 113.617 414.509 112.552 414.077 111.57C413.644 110.588 413 109.714 412.19 109.01C410.524 107.53 407.894 106.79 404.3 106.79H388.89V122.89Z" fill="#731209"/>
<path d="M58.6201 65.67V14.13H93.3901V20.22H65.4401V36.22H89.6301V42.3H65.4401V65.67H58.6201Z" fill="#289A2F"/>
<path d="M100.17 40.57C100.17 32.0167 102.47 25.32 107.07 20.48C111.67 15.64 117.597 13.22 124.85 13.22C129.361 13.1632 133.801 14.3425 137.69 16.63C141.478 18.8675 144.519 22.1766 146.43 26.14C148.483 30.457 149.51 35.1904 149.43 39.97C149.511 44.8222 148.427 49.6231 146.27 53.97C144.304 57.9441 141.162 61.2159 137.27 63.34C133.44 65.4524 129.133 66.5473 124.76 66.52C120.183 66.592 115.678 65.3757 111.76 63.01C107.996 60.7205 104.98 57.3848 103.08 53.41C101.141 49.4088 100.146 45.0162 100.17 40.57ZM107.17 40.68C107.17 46.8867 108.837 51.78 112.17 55.36C113.758 57.0997 115.701 58.4784 117.868 59.4031C120.035 60.3277 122.375 60.7768 124.73 60.72C127.11 60.7873 129.476 60.3376 131.665 59.4019C133.854 58.4662 135.814 57.0667 137.41 55.3C140.743 51.6867 142.41 46.5667 142.41 39.94C142.494 36.1643 141.771 32.4141 140.29 28.94C138.986 25.9487 136.816 23.4165 134.06 21.67C131.311 19.936 128.119 19.0364 124.87 19.08C122.565 19.0478 120.278 19.4731 118.139 20.3314C116 21.1897 114.053 22.4638 112.41 24.08C108.943 27.3867 107.21 32.92 107.21 40.68H107.17Z" fill="#289A2F"/>
<path d="M156.18 40.57C156.18 32.0167 158.477 25.32 163.07 20.48C167.663 15.64 173.593 13.22 180.86 13.22C185.368 13.1651 189.804 14.3443 193.69 16.63C197.478 18.8652 200.516 22.1752 202.42 26.14C204.479 30.4549 205.506 35.1897 205.42 39.97C205.498 44.823 204.411 49.6239 202.25 53.97C200.285 57.9448 197.142 61.2169 193.25 63.34C189.416 65.4511 185.106 66.5459 180.73 66.52C176.153 66.5936 171.648 65.3772 167.73 63.01C163.963 60.7207 160.944 57.3852 159.04 53.41C157.118 49.4048 156.14 45.0123 156.18 40.57ZM163.18 40.68C163.18 46.8867 164.847 51.78 168.18 55.36C169.77 57.1 171.715 58.4787 173.884 59.4034C176.052 60.328 178.393 60.7769 180.75 60.72C183.128 60.7872 185.493 60.3374 187.68 59.4016C189.868 58.4659 191.826 57.0664 193.42 55.3C196.753 51.6867 198.42 46.5667 198.42 39.94C198.506 36.1631 197.779 32.4119 196.29 28.94C194.99 25.9494 192.823 23.417 190.07 21.67C187.318 19.9357 184.122 19.0361 180.87 19.08C178.566 19.0478 176.278 19.4731 174.139 20.3314C172 21.1897 170.053 22.4638 168.41 24.08C164.943 27.3867 163.21 32.92 163.21 40.68H163.18Z" fill="#289A2F"/>
<path d="M227.37 65.67V20.22H210.37V14.13H251.22V20.22H234.19V65.67H227.37Z" fill="#289A2F"/>
<path d="M257.96 65.67V14.13H277.29C280.523 14.0089 283.748 14.5429 286.77 15.7C289.087 16.6892 291.041 18.3734 292.36 20.52C293.657 22.5514 294.351 24.9096 294.36 27.32C294.36 29.5218 293.736 31.6786 292.56 33.54C291.246 35.5969 289.368 37.232 287.15 38.25C289.991 38.9888 292.514 40.6314 294.34 42.93C296.031 45.173 296.916 47.9215 296.85 50.73C296.87 53.0618 296.346 55.3661 295.32 57.46C294.467 59.3398 293.174 60.9863 291.55 62.26C289.86 63.4683 287.946 64.3283 285.92 64.79C283.196 65.4172 280.405 65.706 277.61 65.65L257.96 65.67ZM264.78 35.79H275.92C278.104 35.878 280.289 35.6762 282.42 35.19C283.976 34.7993 285.357 33.8979 286.34 32.63C287.256 31.3125 287.719 29.7333 287.66 28.13C287.692 26.5365 287.265 24.9673 286.43 23.61C285.625 22.3212 284.377 21.3714 282.92 20.94C280.351 20.3501 277.714 20.1079 275.08 20.22H264.78V35.79ZM264.78 59.59H277.61C279.16 59.6289 280.712 59.5487 282.25 59.35C283.64 59.1301 284.976 58.6518 286.19 57.94C287.293 57.2274 288.189 56.2378 288.79 55.07C289.482 53.73 289.825 52.2376 289.79 50.73C289.83 48.9498 289.312 47.2016 288.31 45.73C287.319 44.3023 285.879 43.2464 284.22 42.73C281.76 42.0692 279.215 41.7793 276.67 41.87H264.76L264.78 59.59Z" fill="#289A2F"/>
<path d="M300.6 65.67L320.39 14.13H327.74L348.83 65.67H341.07L335.07 50.06H313.52L307.86 65.67H300.6ZM315.47 44.51H332.94L327.57 30.24C325.92 25.9 324.71 22.34 323.91 19.55C323.241 22.8975 322.312 26.1875 321.13 29.39L315.47 44.51Z" fill="#289A2F"/>
<path d="M354 65.67V14.13H360.82V59.59H386.21V65.67H354Z" fill="#289A2F"/>
<path d="M394.05 65.67V14.13H400.87V59.59H426.25V65.67H394.05Z" fill="#289A2F"/>
<path d="M0.200168 94.13C2.14801 99.3429 5.10435 104.121 8.90015 108.19C11.8414 111.366 15.0982 114.234 18.6202 116.75C22.8078 119.761 27.2399 122.417 31.8702 124.69C38.7707 128.074 45.9805 130.786 53.4002 132.79C56.1302 133.54 58.8802 134.2 61.6402 134.79C61.8262 134.869 62.032 134.89 62.2302 134.85C62.2302 134.65 62.0902 134.55 62.0002 134.42C60.9231 132.901 59.9669 131.299 59.1402 129.63C59.0688 129.476 58.9661 129.339 58.8387 129.227C58.7112 129.115 58.5619 129.031 58.4002 128.98C53.9402 127.38 49.5502 125.6 45.2302 123.64C38.6214 120.661 32.2466 117.188 26.1602 113.25C21.8057 110.445 17.6885 107.288 13.8502 103.81C11.3723 101.568 9.09679 99.1117 7.05014 96.47C5.2172 94.1293 3.70082 91.5571 2.54016 88.82C1.72178 86.7912 1.177 84.6625 0.92017 82.49C0.740015 81.0975 0.659789 79.6939 0.680149 78.29C0.656158 78.1606 0.657942 78.0278 0.685398 77.8991C0.712854 77.7704 0.765446 77.6483 0.840153 77.54C1.03352 78.6449 1.31783 79.7319 1.69016 80.79C2.35377 82.6082 3.22629 84.3431 4.29016 85.96C5.93521 88.436 7.82832 90.7379 9.94016 92.83C13.0057 95.8843 16.3095 98.6898 19.8202 101.22C24.6444 104.723 29.688 107.912 34.9202 110.77C41.5317 114.41 48.3575 117.645 55.3602 120.46C55.5402 120.54 55.7402 120.73 55.9102 120.59C56.0802 120.45 55.9102 120.24 55.9102 120.07C55.5142 117.989 55.2968 115.878 55.2602 113.76C55.2602 113.59 55.2602 113.43 55.2602 113.27V113.11L52.2602 111.98C44.1902 108.98 36.1702 105.77 28.2602 102.32C24.447 100.679 20.803 98.6692 17.3802 96.32C14.811 94.5705 12.4609 92.5192 10.3802 90.21C8.35348 87.9654 6.75389 85.3695 5.66016 82.55C4.96702 80.7211 4.52303 78.8073 4.34015 76.86C4.05498 73.5259 4.41487 70.168 5.40015 66.97C6.41544 63.594 7.85708 60.3613 9.69016 57.35C11.9961 53.5273 14.6759 49.9431 17.6902 46.65C18.9102 45.31 20.1602 43.99 21.4802 42.73C21.6102 42.73 21.6702 42.73 21.6302 42.89C20.5502 44.14 19.4402 45.37 18.3802 46.64C15.8792 49.5394 13.6405 52.6549 11.6902 55.95C10.2061 58.4741 9.01188 61.1578 8.13016 63.95C7.44304 66.1662 7.07928 68.4699 7.05014 70.79C6.99613 74.4495 7.94733 78.0537 9.80014 81.21C10.9189 83.1349 12.2616 84.9207 13.8001 86.53C16.3068 89.1081 19.1096 91.3805 22.1502 93.3C26.379 96.0026 30.8519 98.3026 35.5102 100.17C41.225 102.487 47.1174 104.34 53.1302 105.71C53.8902 105.89 54.6602 106.06 55.4202 106.22C55.53 106.229 55.6403 106.229 55.7502 106.22C55.8769 106.045 55.9468 105.836 55.9502 105.62C56.5198 102.823 57.4125 100.101 58.6102 97.51L58.6702 97.39C58.8102 97.07 58.7902 97.03 58.4802 96.98L56.6902 96.79C50.9828 95.8959 45.3647 94.5039 39.9002 92.63C36.6522 91.5307 33.515 90.1278 30.5302 88.44C28.4108 87.2695 26.4654 85.8087 24.7502 84.1C23.5226 82.8593 22.5419 81.3967 21.8602 79.79C20.9863 77.6407 20.825 75.2677 21.4002 73.02C21.72 71.72 22.1898 70.4616 22.8001 69.27C22.8371 69.1878 22.8842 69.1106 22.9402 69.04C22.9402 69.04 23.0202 69.04 23.0602 69.04C23.1002 69.04 23.1402 69.04 23.1402 69.13C23.1402 69.22 23.1402 69.22 23.1402 69.26C23.1305 72.1503 24.0762 74.9628 25.8302 77.26C26.862 78.7033 28.0829 80.0015 29.4601 81.12C31.5155 82.8282 33.7764 84.2728 36.1902 85.42C39.7367 87.1293 43.4496 88.4697 47.2701 89.42C50.4356 90.2321 53.6485 90.8467 56.8902 91.26C58.3302 91.44 59.7701 91.58 61.2101 91.74H61.7602C61.8278 91.7518 61.8975 91.7428 61.96 91.7143C62.0224 91.6857 62.0748 91.6389 62.1102 91.58L62.2401 91.41C63.5336 89.6163 64.9862 87.9429 66.5802 86.41L66.8001 86.18C66.7501 85.99 66.6101 86.04 66.5201 86.03L65.2802 85.95C61.305 85.7836 57.3423 85.3964 53.4102 84.79C49.4233 84.2218 45.4991 83.2776 41.6902 81.97C39.511 81.2444 37.4366 80.2358 35.5201 78.97C34.1147 78.0405 32.8544 76.9083 31.7802 75.61C30.1079 73.5282 29.0391 71.0274 28.6902 68.38C28.3692 65.8616 28.491 63.3065 29.0501 60.83C29.7427 57.7532 30.7967 54.7692 32.1902 51.94C33.9981 48.2107 36.1402 44.6528 38.5902 41.31C42.5169 35.9037 46.9466 30.8813 51.8202 26.31C57.5574 20.9432 63.7845 16.1255 70.4202 11.92C76.7202 7.92 83.0602 3.92 89.5002 0.130001C89.5768 0.0807538 89.657 0.0372985 89.7401 0C89.8801 0 89.9301 1.75834e-06 89.9001 0.160002C88.4801 1.33 86.9902 2.42 85.5002 3.5C82.7002 5.5 79.8402 7.5 77.0002 9.41C73.4002 11.89 69.8401 14.41 66.4601 17.22C59.7926 22.6523 53.8238 28.8899 48.6902 35.79C46.4078 38.8278 44.3746 42.0449 42.6102 45.41C41.3474 47.8072 40.3418 50.3312 39.6102 52.94C39.0219 54.9789 38.7686 57.0999 38.8602 59.22C38.89 60.672 39.0913 62.1153 39.4601 63.52C40.2284 66.1915 41.7951 68.5642 43.9502 70.32C45.61 71.6811 47.4725 72.7743 49.4702 73.56C51.6053 74.4134 53.8014 75.1054 56.0402 75.63C58.5704 76.2314 61.1306 76.6987 63.7101 77.03C66.0901 77.3433 68.4735 77.5767 70.8602 77.73C72.6702 77.85 74.4901 77.96 76.3001 78.01C77.4101 78.01 78.5101 78.08 79.6201 78.13C80.0299 78.1521 80.4402 78.0979 80.8302 77.97C83.2805 77.1574 85.8121 76.6142 88.3802 76.35C90.6462 76.1134 92.9292 76.0866 95.2002 76.27C98.8966 76.5629 102.528 77.4125 105.97 78.79C111.443 80.9837 116.311 84.4532 120.171 88.9097C124.031 93.3662 126.77 98.6806 128.16 104.41C128.847 107.299 129.183 110.26 129.16 113.23C129.136 121.356 126.438 129.248 121.483 135.687C116.527 142.127 109.589 146.756 101.74 148.86C99.6528 149.428 97.5168 149.8 95.3602 149.97C86.294 150.783 77.2491 148.199 69.9802 142.72C69.6761 142.49 69.3389 142.308 68.9802 142.18C63.1302 140.11 57.2601 138.06 51.4601 135.86C46.0801 133.86 40.7402 131.68 35.5402 129.2C31.0105 127.098 26.6243 124.699 22.4102 122.02C18.7035 119.651 15.2223 116.946 12.0102 113.94C9.30762 111.434 6.90185 108.625 4.84015 105.57C2.73059 102.43 1.17162 98.9537 0.230167 95.29C0.170167 95.05 0.120154 94.8 0.0601537 94.55C0.000153724 94.3 -0.129832 94.18 0.200168 94.13Z" fill="#0E5C50"/>
<path d="M23.4301 58.34C23.4404 58.3759 23.4404 58.4141 23.4301 58.45C23.1601 58.45 23.2801 58.29 23.3001 58.17V57.93C23.3406 57.8266 23.3708 57.7194 23.3902 57.61C23.7831 55.9546 24.2774 54.3248 24.8701 52.73C27.257 46.2008 30.7515 40.132 35.2002 34.79C39.3235 29.8268 44.077 25.4229 49.3401 21.69C54.4678 18.0464 59.9447 14.921 65.6901 12.36C67.1301 11.7 68.6001 11.1 70.0601 10.47H70.2002C70.2002 10.63 70.0702 10.66 69.9802 10.72C68.4202 11.72 66.9001 12.82 65.3101 13.8C58.0126 18.3344 51.1943 23.5981 44.9601 29.51C39.1782 34.8975 34.0132 40.9111 29.5601 47.44C27.3007 50.7374 25.3365 54.2276 23.6901 57.87L23.5901 58.05C23.4801 58.13 23.5101 58.26 23.4301 58.34Z" fill="#0E5C50"/>
<path d="M99.5502 131.26C99.5711 131.348 99.5616 131.44 99.5235 131.522C99.4854 131.603 99.4208 131.67 99.3402 131.71L97.2003 133.24L89.5103 138.75C89.4162 138.811 89.326 138.878 89.2402 138.95C89.0202 139.17 88.8102 139.12 88.5502 139.02C85.7769 137.893 83.0036 136.773 80.2303 135.66C78.7803 135.07 77.3403 134.47 75.8803 133.91C75.7187 133.86 75.5743 133.767 75.463 133.639C75.3517 133.512 75.2781 133.357 75.2502 133.19C74.4702 129.783 73.6836 126.377 72.8903 122.97C72.6903 122.1 72.5002 121.22 72.2802 120.35C72.1402 119.79 72.2103 119.86 72.6003 119.58L75.7303 117.42L84.1403 111.62L84.3002 111.5C84.4062 111.396 84.545 111.333 84.6927 111.32C84.8405 111.307 84.988 111.346 85.1103 111.43L97.6202 117.24L97.8102 117.33C97.9087 117.363 97.9944 117.426 98.0554 117.511C98.1163 117.595 98.1495 117.696 98.1502 117.8C98.2402 118.8 98.3403 119.8 98.4503 120.8C98.6636 122.8 98.8769 124.8 99.0902 126.8C99.2402 128.22 99.3802 129.63 99.5302 131.05C99.5402 131.11 99.5402 131.18 99.5502 131.26Z" fill="white"/>
<path d="M82.5498 96.65C82.544 96.6037 82.5512 96.5567 82.5706 96.5143C82.59 96.4719 82.621 96.4358 82.6599 96.41L82.9898 96.17L92.5699 89.27L92.8499 89.06C92.8997 89.03 92.9567 89.0142 93.0149 89.0142C93.073 89.0142 93.13 89.03 93.1799 89.06L93.5599 89.21L106.64 94.61L106.96 94.74C107.046 94.7709 107.121 94.8261 107.176 94.8989C107.231 94.9717 107.264 95.0589 107.27 95.15C107.45 96.15 107.64 97.15 107.82 98.07C108.4 101.14 108.97 104.22 109.55 107.29C109.55 107.41 109.6 107.52 109.62 107.63C109.632 107.687 109.629 107.746 109.609 107.801C109.59 107.856 109.555 107.904 109.51 107.94L109.24 108.16C105.867 110.873 102.5 113.593 99.1399 116.32C99.0106 116.448 98.8426 116.531 98.6619 116.554C98.4811 116.578 98.2977 116.541 98.1399 116.45C94.1399 114.55 90.0499 112.68 85.9999 110.81C85.3999 110.52 85.3899 110.52 85.2599 109.87C84.3799 105.57 83.5032 101.267 82.6299 96.96C82.5799 96.84 82.5698 96.79 82.5498 96.65Z" fill="white"/>
<path d="M119.76 116.39L117.12 113.9C115.12 111.98 113.12 110.06 111.05 108.16C110.76 107.898 110.566 107.545 110.5 107.16C109.833 103.627 109.167 100.1 108.5 96.58C108.4 96.03 108.31 95.49 108.2 94.95C108.177 94.8726 108.181 94.7894 108.212 94.7146C108.243 94.6399 108.299 94.5782 108.37 94.54L109.87 93.54C111.21 92.68 112.54 91.82 113.87 90.94C114.012 90.8354 114.174 90.7618 114.347 90.7239C114.519 90.686 114.697 90.6846 114.87 90.72C116.32 91 117.77 91.23 119.22 91.47C119.39 91.4932 119.553 91.5514 119.7 91.6409C119.846 91.7304 119.972 91.8493 120.07 91.99C121.769 94.255 123.195 96.7118 124.32 99.31C124.449 99.5812 124.511 99.8797 124.5 100.18C124.42 102.89 124.35 105.61 124.29 108.32C124.29 109.59 124.24 110.85 124.22 112.12C124.22 112.28 124.22 112.44 124.22 112.6C124.23 112.692 124.212 112.784 124.169 112.866C124.127 112.948 124.061 113.015 123.98 113.06L123.93 113.11L119.93 116.26L119.76 116.39Z" fill="white"/>
<path d="M113.54 135.1C113.6 136.1 113.65 137.03 113.74 137.99C113.764 138.145 113.741 138.303 113.673 138.444C113.605 138.585 113.496 138.703 113.36 138.78C110.207 141.1 107.066 143.433 103.94 145.78C103.426 146.165 102.847 146.453 102.23 146.63C100.045 147.271 97.8053 147.709 95.5398 147.94C95.3147 147.972 95.0854 147.926 94.8898 147.81C93.9298 147.25 92.9698 146.7 92.0098 146.16C91.812 146.05 91.6649 145.867 91.5998 145.65L89.7698 140.23C89.6398 139.85 89.6398 139.85 89.9798 139.61L98.5598 133.46C99.0298 133.13 99.4998 132.8 99.9598 132.46C100.158 132.307 100.4 132.223 100.65 132.22L105.82 131.96L112.57 131.6C113.44 131.6 113.32 131.51 113.37 132.35C113.42 133.19 113.48 134.19 113.54 135.11V135.1Z" fill="white"/>
<path d="M69.7401 137.48L69.3302 137.25C67.8102 136.34 66.3302 135.42 64.7802 134.52C64.5013 134.359 64.2594 134.141 64.0702 133.88C61.6214 130.562 59.7765 126.838 58.6202 122.88C58.5056 122.505 58.4749 122.109 58.5302 121.72C58.8302 119.82 59.1202 117.9 59.4102 116V115.86C59.4069 115.448 59.4886 115.039 59.6502 114.66C59.906 114.361 60.1983 114.096 60.5201 113.87L62.8202 111.87L63.1902 111.58C63.3802 111.58 63.4502 111.76 63.5602 111.87C66.0335 114.59 68.5068 117.313 70.9802 120.04C71.1806 120.26 71.3187 120.529 71.3802 120.82C72.2302 124.54 73.1002 128.26 73.9602 131.97C74.0902 132.51 74.2102 133.05 74.3402 133.58C74.3679 133.657 74.3681 133.74 74.3407 133.817C74.3133 133.894 74.2601 133.958 74.1902 134L73.9202 134.22L70.1802 137.16C70.0579 137.297 69.9079 137.406 69.7401 137.48Z" fill="white"/>
<path d="M75.4501 95.97L69.8601 96.06H69.3801C69.2401 96.06 69.1801 95.97 69.1601 95.84L69.0701 94.74C68.9601 93.5 68.8701 92.27 68.7601 91.03C68.7293 90.8632 68.7447 90.6913 68.8046 90.5326C68.8646 90.374 68.9667 90.2348 69.1001 90.13C71.6801 87.84 74.2501 85.53 76.8201 83.23C76.9983 83.0511 77.23 82.9352 77.4801 82.9L83.9701 81.9C86.2901 81.56 88.6101 81.2 90.9701 80.9C91.3854 80.7802 91.8196 80.7394 92.25 80.78C92.3332 81.181 92.3668 81.5908 92.3501 82C92.4001 83.11 92.4101 84.21 92.4401 85.32C92.4401 86.1 92.4901 86.88 92.5401 87.66C92.5548 87.8055 92.5266 87.9521 92.4591 88.0818C92.3916 88.2115 92.2877 88.3186 92.1601 88.39C89.9534 89.97 87.75 91.5567 85.55 93.15C84.48 93.92 83.4101 94.67 82.3601 95.46C82.0164 95.7243 81.5936 95.8653 81.1601 95.86C79.2701 95.86 77.38 95.86 75.49 95.94L75.4501 95.97Z" fill="white"/>
<path d="M114.32 132.01C114.213 131.318 114.351 130.611 114.71 130.01C116.45 126.01 118.18 121.977 119.9 117.91C120.058 117.53 120.318 117.202 120.65 116.96C121.78 116.09 122.89 115.2 124.01 114.32L124.4 114.03C124.51 113.94 124.61 113.98 124.69 114.08L124.9 114.36C125.45 115.12 126 115.89 126.58 116.63C126.711 116.786 126.806 116.969 126.858 117.166C126.91 117.363 126.917 117.57 126.88 117.77C126.616 119.659 126.205 121.525 125.65 123.35C124.041 128.601 121.214 133.398 117.4 137.35C117.282 137.486 117.136 137.596 116.972 137.672C116.808 137.747 116.631 137.788 116.45 137.79C115.95 137.79 115.45 137.87 114.94 137.91C114.907 137.919 114.872 137.921 114.837 137.914C114.803 137.908 114.771 137.893 114.744 137.871C114.717 137.85 114.695 137.822 114.68 137.791C114.666 137.759 114.659 137.725 114.66 137.69C114.66 137.62 114.66 137.55 114.66 137.48C114.54 135.72 114.43 133.93 114.32 132.01Z" fill="white"/>
<path d="M66.78 89.07C67.12 89.56 67.4 89.95 67.68 90.34C67.7469 90.459 67.7814 90.5935 67.78 90.73C67.87 91.73 67.96 92.8 68.04 93.83C68.1 94.56 68.15 95.3 68.21 96.03C68.2427 96.3492 68.1981 96.6716 68.08 96.97C66.4334 101.31 64.7967 105.643 63.17 109.97C63.0511 110.292 62.8513 110.578 62.59 110.8C61.38 111.8 60.17 112.86 58.98 113.9C58.7655 114.107 58.4783 114.222 58.18 114.22C57.12 114.22 57.26 114.4 57.26 113.33C57.1498 104.434 60.4737 95.8378 66.54 89.33L66.78 89.07Z" fill="white"/>
<path d="M102.59 79.79H100.4C97.9602 79.79 95.5202 79.7 93.0802 79.67C92.7458 79.6615 92.4113 79.6816 92.0802 79.73C89.7802 80.06 87.4802 80.41 85.1802 80.73L79.2402 81.62L77.6702 81.85C77.5142 81.87 77.3563 81.87 77.2002 81.85C77.1502 81.85 77.0802 81.77 77.0702 81.71C77.0562 81.6821 77.0488 81.6513 77.0488 81.62C77.0488 81.5887 77.0562 81.5579 77.0702 81.53C77.1632 81.4617 77.2638 81.4046 77.3702 81.36C80.2311 80.0252 83.2581 79.0801 86.3702 78.55C88.0959 78.2604 89.8407 78.1 91.5902 78.07C95.2088 78.0056 98.8153 78.5049 102.28 79.55C102.386 79.5866 102.49 79.63 102.59 79.68V79.79Z" fill="#FEFEFE"/>
<path d="M118.78 90.39C118.278 90.3808 117.778 90.3171 117.29 90.2C116.6 90.1 115.93 89.95 115.29 89.85C114.994 89.812 114.721 89.6703 114.52 89.45C113.52 88.37 112.43 87.3 111.39 86.23C109.98 84.78 108.56 83.33 107.15 81.87L106.66 81.35C108.277 81.9572 109.812 82.7634 111.23 83.75C114.053 85.5884 116.596 87.8248 118.78 90.39Z" fill="#FEFEFE"/>
<path d="M86.5601 147.49C87.9501 147.29 89.3301 147.1 90.7101 146.89C91.0554 146.82 91.4143 146.889 91.7101 147.08C92.1601 147.37 92.6301 147.61 93.0801 147.87C93.1401 147.87 93.2001 147.96 93.1401 148.03C93.1108 148.061 93.0722 148.082 93.0301 148.09C91.6548 148.117 90.2791 148.063 88.9101 147.93C88.2701 147.87 87.6301 147.78 87.0001 147.7C86.8201 147.68 86.6901 147.69 86.5601 147.49Z" fill="#F9F9F8"/>
<path d="M66.4502 136.87C66.516 136.824 66.5946 136.799 66.6752 136.799C66.7558 136.799 66.8344 136.824 66.9002 136.87C67.397 137.2 67.9111 137.504 68.4402 137.78C69.1695 138.127 69.7511 138.723 70.0802 139.46C70.2521 139.803 70.4423 140.137 70.6502 140.46C70.3902 140.46 70.2802 140.29 70.1402 140.18C68.952 139.205 67.8233 138.16 66.7602 137.05C66.6702 136.95 66.6202 136.81 66.4502 136.81L66.5302 136.75L66.4502 136.87Z" fill="#F7F6F6"/>
</g>
<defs>
<clipPath id="clip0_299_2">
<rect width="426.24" height="150.92" fill="white"/>
</clipPath>
</defs>
</svg>
